ffmpeg started on 2021-11-17 at 06:20:59
Report written to "data/logs/transcoder.log"
Log level: 32
Command line:
/usr/bin/ffmpeg -hide_banner -loglevel warning -fflags +genpts -i pipe:0 -map v:0 -c:v:0 libx264 -b:v:0 1200k -maxrate:v:0 1272k -g:v:0 72 -keyint_min:v:0 72 -r:v:0 24 -x264-params:v:0 "scenecut=0:open_gop=0" -bufsize:v:0 1440k -profile:v:0 high -map "a:0?" -c:a:0 copy -preset veryfast -var_stream_map "v:0,a:0 " -f hls -hls_time 3 -hls_list_size 3 -segment_format_options "mpegts_flags=+initial_discontinuity:mpegts_copyts=1" -tune zerolatency -pix_fmt yuv420p -sc_threshold 0 -master_pl_name stream.m3u8 -strftime 1 -hls_segment_filename "http://127.0.0.1:41329/%v/stream-g6UGzw5ng%s.ts" -max_muxing_queue_size 400 -method PUT -http_persistent 0 "http://127.0.0.1:41329/%v/stream.m3u8"
Input #0, flv, from 'pipe:0':
  Duration: 00:00:00.00, start: 0.000000, bitrate: N/A
  Stream #0:0: Subtitle: text
  Stream #0:1: Video: h264 (Baseline), yuv420p(tv, unknown/bt470bg/unknown, progressive), 480x640, 43 tbr, 1k tbn
  Stream #0:2: Audio: aac (LC), 44100 Hz, stereo, fltp
Stream mapping:
  Stream #0:1 -> #0:0 (h264 (native) -> h264 (libx264))
  Stream #0:2 -> #0:1 (copy)
[libx264 @ 0x7f1560cc3040] using cpu capabilities: MMX2 SSE2Fast SSSE3 SSE4.2 AVX FMA3 BMI2 AVX2
[libx264 @ 0x7f1560cc3040] profile High, level 3.0, 4:2:0, 8-bit
[libx264 @ 0x7f1560cc3040] 264 - core 161 - H.264/MPEG-4 AVC codec - Copyleft 2003-2021 - http://www.videolan.org/x264.html - options: cabac=1 ref=1 deblock=1:0:0 analyse=0x3:0x113 me=hex subme=2 psy=1 psy_rd=1.00:0.00 mixed_ref=0 me_range=16 chroma_me=1 trellis=0 8x8dct=1 cqm=0 deadzone=21,11 fast_pskip=1 chroma_qp_offset=0 threads=4 lookahead_threads=4 sliced_threads=1 slices=4 nr=0 decimate=1 interlaced=0 bluray_compat=0 constrained_intra=0 bframes=0 weightp=1 keyint=72 keyint_min=37 scenecut=0 intra_refresh=0 rc_lookahead=0 rc=abr mbtree=0 bitrate=1200 ratetol=1.0 qcomp=0.60 qpmin=0 qpmax=69 qpstep=4 vbv_maxrate=1272 vbv_bufsize=1440 nal_hrd=none filler=0 ip_ratio=1.40 aq=1:1.00
Output #0, hls, to 'http://127.0.0.1:41329/%v/stream.m3u8':
  Metadata:
    encoder         : Lavf58.76.100
  Stream #0:0: Video: h264, yuv420p(tv, unknown/bt470bg/unknown, progressive), 480x640, q=2-31, 1200 kb/s, 24 fps, 90k tbn
    Metadata:
      encoder         : Lavc58.134.100 libx264
    Side data:
      cpb: bitrate max/min/avg: 1272000/0/1200000 buffer size: 1440000 vbv_delay: N/A
  Stream #0:1: Audio: aac (LC), 44100 Hz, stereo, fltp
frame=    1 fps=0.0 q=23.0 size=N/A time=00:00:00.11 bitrate=N/A speed=  21x    frame=   45 fps=0.0 q=18.0 size=N/A time=00:00:01.97 bitrate=N/A dup=0 drop=11 speed=3.73x    frame=   58 fps= 56 q=17.0 size=N/A time=00:00:02.50 bitrate=N/A dup=0 drop=13 speed=2.43x    frame=   70 fps= 45 q=17.0 size=N/A time=00:00:02.99 bitrate=N/A dup=0 drop=16 speed=1.94x    [hls @ 0x7f156100a0c0] Opening 'http://127.0.0.1:41329/0/stream-g6UGzw5ng1637130061.ts' for writing
[hls @ 0x7f156100a0c0] Opening 'http://127.0.0.1:41329/0/stream.m3u8' for writing
[hls @ 0x7f156100a0c0] Opening 'http://127.0.0.1:41329/stream.m3u8' for writing
frame=   82 fps= 40 q=18.0 size=N/A time=00:00:03.50 bitrate=N/A dup=0 drop=19 speed=1.71x    frame=   94 fps= 37 q=17.0 size=N/A time=00:00:03.99 bitrate=N/A dup=0 drop=22 speed=1.57x    frame=  102 fps= 33 q=18.0 size=N/A time=00:00:04.34 bitrate=N/A dup=0 drop=24 speed=1.41x    frame=  118 fps= 32 q=18.0 size=N/A time=00:00:04.99 bitrate=N/A dup=0 drop=27 speed=1.36x    frame=  130 fps= 31 q=16.0 size=N/A time=00:00:05.52 bitrate=N/A dup=0 drop=31 speed=1.32x    frame=  142 fps= 30 q=16.0 size=N/A time=00:00:06.03 bitrate=N/A dup=0 drop=34 speed=1.28x    [hls @ 0x7f156100a0c0] Opening 'http://127.0.0.1:41329/0/stream-g6UGzw5ng1637130063.ts' for writing
[hls @ 0x7f156100a0c0] Opening 'http://127.0.0.1:41329/0/stream.m3u8' for writing
frame=  156 fps= 30 q=17.0 size=N/A time=00:00:06.59 bitrate=N/A dup=0 drop=37 speed=1.26x    frame=  168 fps= 29 q=15.0 size=N/A time=00:00:07.08 bitrate=N/A dup=0 drop=39 speed=1.23x    frame=  183 fps= 29 q=15.0 size=N/A time=00:00:07.70 bitrate=N/A dup=0 drop=43 speed=1.23x    frame=  195 fps= 29 q=17.0 size=N/A time=00:00:08.21 bitrate=N/A dup=0 drop=46 speed=1.21x    frame=  207 fps= 28 q=15.0 size=N/A time=00:00:08.73 bitrate=N/A dup=0 drop=49 speed= 1.2x    [hls @ 0x7f156100a0c0] Opening 'http://127.0.0.1:41329/0/stream-g6UGzw5ng1637130066.ts' for writing
[hls @ 0x7f156100a0c0] Opening 'http://127.0.0.1:41329/0/stream.m3u8' for writing
frame=  217 fps= 27 q=13.0 size=N/A time=00:00:09.14 bitrate=N/A dup=0 drop=50 speed=1.15x    frame=  235 fps= 28 q=16.0 size=N/A time=00:00:09.89 bitrate=N/A dup=0 drop=55 speed=1.17x    frame=  247 fps= 28 q=15.0 size=N/A time=00:00:10.40 bitrate=N/A dup=0 drop=57 speed=1.16x    frame=  259 fps= 27 q=16.0 size=N/A time=00:00:10.91 bitrate=N/A dup=0 drop=61 speed=1.15x    frame=  272 fps= 27 q=16.0 size=N/A time=00:00:11.42 bitrate=N/A dup=0 drop=64 speed=1.15x    frame=  285 fps= 27 q=16.0 size=N/A time=00:00:11.93 bitrate=N/A dup=0 drop=66 speed=1.14x    [hls @ 0x7f156100a0c0] Opening 'http://127.0.0.1:41329/0/stream-g6UGzw5ng1637130069.ts' for writing
[hls @ 0x7f156100a0c0] Opening 'http://127.0.0.1:41329/0/stream.m3u8' for writing
frame=  296 fps= 27 q=16.0 size=N/A time=00:00:12.44 bitrate=N/A dup=0 drop=69 speed=1.13x    frame=  308 fps= 27 q=16.0 size=N/A time=00:00:12.95 bitrate=N/A dup=0 drop=72 speed=1.13x    frame=  321 fps= 27 q=16.0 size=N/A time=00:00:13.46 bitrate=N/A dup=0 drop=75 speed=1.12x    frame=  333 fps= 27 q=16.0 size=N/A time=00:00:13.97 bitrate=N/A dup=0 drop=78 speed=1.12x    frame=  345 fps= 26 q=17.0 size=N/A time=00:00:14.46 bitrate=N/A dup=0 drop=81 speed=1.11x    frame=  358 fps= 26 q=16.0 size=N/A time=00:00:14.97 bitrate=N/A dup=0 drop=83 speed=1.11x    [hls @ 0x7f156100a0c0] Opening 'http://127.0.0.1:41329/0/stream-g6UGzw5ng1637130072.ts' for writing
[hls @ 0x7f156100a0c0] Opening 'http://127.0.0.1:41329/0/stream.m3u8' for writing
frame=  370 fps= 26 q=16.0 size=N/A time=00:00:15.48 bitrate=N/A dup=0 drop=86 speed= 1.1x    frame=  382 fps= 26 q=16.0 size=N/A time=00:00:15.99 bitrate=N/A dup=0 drop=89 speed= 1.1x    frame=  393 fps= 26 q=17.0 size=N/A time=00:00:16.48 bitrate=N/A dup=0 drop=92 speed=1.09x    frame=  406 fps= 26 q=17.0 size=N/A time=00:00:16.99 bitrate=N/A dup=0 drop=95 speed=1.09x    frame=  418 fps= 26 q=17.0 size=N/A time=00:00:17.48 bitrate=N/A dup=0 drop=98 speed=1.09x    frame=  431 fps= 26 q=16.0 size=N/A time=00:00:18.01 bitrate=N/A dup=0 drop=100 speed=1.09x    [hls @ 0x7f156100a0c0] Opening 'http://127.0.0.1:41329/0/stream-g6UGzw5ng1637130075.ts' for writing
[hls @ 0x7f156100a0c0] Opening 'http://127.0.0.1:41329/0/stream.m3u8' for writing
frame=  443 fps= 26 q=16.0 size=N/A time=00:00:18.52 bitrate=N/A dup=0 drop=103 speed=1.09x    frame=  455 fps= 26 q=15.0 size=N/A time=00:00:19.01 bitrate=N/A dup=0 drop=106 speed=1.08x    frame=  466 fps= 26 q=16.0 size=N/A time=00:00:19.52 bitrate=N/A dup=0 drop=109 speed=1.08x    frame=  479 fps= 26 q=18.0 size=N/A time=00:00:20.01 bitrate=N/A dup=0 drop=111 speed=1.08x    frame=  491 fps= 26 q=18.0 size=N/A time=00:00:20.52 bitrate=N/A dup=0 drop=114 speed=1.08x    frame=  503 fps= 26 q=17.0 size=N/A time=00:00:21.03 bitrate=N/A dup=0 drop=117 speed=1.07x    [hls @ 0x7f156100a0c0] Opening 'http://127.0.0.1:41329/0/stream-g6UGzw5ng1637130078.ts' for writing
[hls @ 0x7f156100a0c0] Opening 'http://127.0.0.1:41329/0/stream.m3u8' for writing
frame=  515 fps= 26 q=18.0 size=N/A time=00:00:21.54 bitrate=N/A dup=0 drop=121 speed=1.07x    frame=  527 fps= 26 q=17.0 size=N/A time=00:00:22.05 bitrate=N/A dup=0 drop=123 speed=1.07x    frame=  540 fps= 26 q=17.0 size=N/A time=00:00:22.54 bitrate=N/A dup=0 drop=126 speed=1.07x    frame=  551 fps= 25 q=19.0 size=N/A time=00:00:23.05 bitrate=N/A dup=0 drop=130 speed=1.07x    frame=  564 fps= 25 q=19.0 size=N/A time=00:00:23.56 bitrate=N/A dup=0 drop=132 speed=1.06x    frame=  576 fps= 25 q=18.0 size=N/A time=00:00:24.07 bitrate=N/A dup=0 drop=135 speed=1.06x    [hls @ 0x7f156100a0c0] Opening 'http://127.0.0.1:41329/0/stream-g6UGzw5ng1637130080.ts' for writing
[hls @ 0x7f156100a0c0] Opening 'http://127.0.0.1:41329/0/stream.m3u8' for writing
frame=  588 fps= 25 q=19.0 size=N/A time=00:00:24.58 bitrate=N/A dup=0 drop=138 speed=1.06x    frame=  600 fps= 25 q=18.0 size=N/A time=00:00:25.09 bitrate=N/A dup=0 drop=141 speed=1.06x    frame=  612 fps= 25 q=19.0 size=N/A time=00:00:25.61 bitrate=N/A dup=0 drop=144 speed=1.06x    frame=  625 fps= 25 q=18.0 size=N/A time=00:00:26.09 bitrate=N/A dup=0 drop=146 speed=1.06x    frame=  637 fps= 25 q=19.0 size=N/A time=00:00:26.65 bitrate=N/A dup=0 drop=149 speed=1.06x    [hls @ 0x7f156100a0c0] Opening 'http://127.0.0.1:41329/0/stream-g6UGzw5ng1637130084.ts' for writing
[hls @ 0x7f156100a0c0] Opening 'http://127.0.0.1:41329/0/stream.m3u8' for writing
frame=  649 fps= 25 q=16.0 size=N/A time=00:00:27.14 bitrate=N/A dup=0 drop=151 speed=1.06x    frame=  662 fps= 25 q=20.0 size=N/A time=00:00:27.65 bitrate=N/A dup=0 drop=154 speed=1.05x    frame=  674 fps= 25 q=18.0 size=N/A time=00:00:28.16 bitrate=N/A dup=0 drop=157 speed=1.05x    frame=  686 fps= 25 q=19.0 size=N/A time=00:00:28.65 bitrate=N/A dup=0 drop=160 speed=1.05x    frame=  699 fps= 25 q=18.0 size=N/A time=00:00:29.18 bitrate=N/A dup=0 drop=163 speed=1.05x    frame=  710 fps= 25 q=18.0 size=N/A time=00:00:29.69 bitrate=N/A dup=0 drop=166 speed=1.05x    [hls @ 0x7f156100a0c0] Opening 'http://127.0.0.1:41329/0/stream-g6UGzw5ng1637130087.ts' for writing
[hls @ 0x7f156100a0c0] Opening 'http://127.0.0.1:41329/0/stream.m3u8' for writing
frame=  723 fps= 25 q=18.0 size=N/A time=00:00:30.20 bitrate=N/A dup=0 drop=169 speed=1.05x    frame=  735 fps= 25 q=19.0 size=N/A time=00:00:30.71 bitrate=N/A dup=0 drop=172 speed=1.05x    frame=  747 fps= 25 q=18.0 size=N/A time=00:00:31.20 bitrate=N/A dup=0 drop=175 speed=1.05x    frame=  759 fps= 25 q=17.0 size=N/A time=00:00:31.71 bitrate=N/A dup=0 drop=178 speed=1.05x    frame=  772 fps= 25 q=16.0 size=N/A time=00:00:32.22 bitrate=N/A dup=0 drop=180 speed=1.05x    frame=  784 fps= 25 q=18.0 size=N/A time=00:00:32.73 bitrate=N/A dup=0 drop=183 speed=1.05x    [hls @ 0x7f156100a0c0] Opening 'http://127.0.0.1:41329/0/stream-g6UGzw5ng1637130090.ts' for writing
[hls @ 0x7f156100a0c0] Opening 'http://127.0.0.1:41329/0/stream.m3u8' for writing
frame=  796 fps= 25 q=18.0 size=N/A time=00:00:33.24 bitrate=N/A dup=0 drop=186 speed=1.04x    frame=  808 fps= 25 q=17.0 size=N/A time=00:00:33.76 bitrate=N/A dup=0 drop=189 speed=1.04x    frame=  820 fps= 25 q=14.0 size=N/A time=00:00:34.24 bitrate=N/A dup=0 drop=192 speed=1.04x    frame=  832 fps= 25 q=15.0 size=N/A time=00:00:34.75 bitrate=N/A dup=0 drop=195 speed=1.04x    frame=  844 fps= 25 q=15.0 size=N/A time=00:00:35.29 bitrate=N/A dup=0 drop=198 speed=1.04x    frame=  856 fps= 25 q=14.0 size=N/A time=00:00:35.78 bitrate=N/A dup=0 drop=200 speed=1.04x    [hls @ 0x7f156100a0c0] Opening 'http://127.0.0.1:41329/0/stream-g6UGzw5ng1637130093.ts' for writing
[hls @ 0x7f156100a0c0] Opening 'http://127.0.0.1:41329/0/stream.m3u8' for writing
frame=  869 fps= 25 q=14.0 size=N/A time=00:00:36.29 bitrate=N/A dup=0 drop=203 speed=1.04x    frame=  881 fps= 25 q=14.0 size=N/A time=00:00:36.77 bitrate=N/A dup=0 drop=206 speed=1.04x    frame=  894 fps= 25 q=13.0 size=N/A time=00:00:37.28 bitrate=N/A dup=0 drop=208 speed=1.04x    frame=  904 fps= 25 q=13.0 size=N/A time=00:00:37.80 bitrate=N/A dup=0 drop=211 speed=1.04x    frame=  918 fps= 25 q=13.0 size=N/A time=00:00:38.28 bitrate=N/A dup=0 drop=214 speed=1.04x    frame=  929 fps= 25 q=13.0 size=N/A time=00:00:38.79 bitrate=N/A dup=0 drop=217 speed=1.04x    [hls @ 0x7f156100a0c0] Opening 'http://127.0.0.1:41329/0/stream-g6UGzw5ng1637130096.ts' for writing
[hls @ 0x7f156100a0c0] Opening 'http://127.0.0.1:41329/0/stream.m3u8' for writing
frame=  941 fps= 25 q=12.0 size=N/A time=00:00:39.28 bitrate=N/A dup=0 drop=220 speed=1.04x    frame=  953 fps= 25 q=12.0 size=N/A time=00:00:39.82 bitrate=N/A dup=0 drop=223 speed=1.04x    frame=  965 fps= 25 q=12.0 size=N/A time=00:00:40.33 bitrate=N/A dup=0 drop=226 speed=1.04x    frame=  978 fps= 25 q=12.0 size=N/A time=00:00:40.84 bitrate=N/A dup=0 drop=229 speed=1.04x    frame=  990 fps= 25 q=11.0 size=N/A time=00:00:41.35 bitrate=N/A dup=0 drop=231 speed=1.04x    frame= 1003 fps= 25 q=12.0 size=N/A time=00:00:41.86 bitrate=N/A dup=0 drop=234 speed=1.04x    [hls @ 0x7f156100a0c0] Opening 'http://127.0.0.1:41329/0/stream-g6UGzw5ng1637130099.ts' for writing
[hls @ 0x7f156100a0c0] Opening 'http://127.0.0.1:41329/0/stream.m3u8' for writing
frame= 1015 fps= 25 q=12.0 size=N/A time=00:00:42.37 bitrate=N/A dup=0 drop=237 speed=1.03x    frame= 1027 fps= 25 q=12.0 size=N/A time=00:00:42.88 bitrate=N/A dup=0 drop=240 speed=1.03x    frame= 1039 fps= 25 q=11.0 size=N/A time=00:00:43.37 bitrate=N/A dup=0 drop=243 speed=1.03x    frame= 1051 fps= 25 q=13.0 size=N/A time=00:00:43.88 bitrate=N/A dup=0 drop=246 speed=1.03x    frame= 1064 fps= 25 q=11.0 size=N/A time=00:00:44.39 bitrate=N/A dup=0 drop=248 speed=1.03x    frame= 1076 fps= 25 q=12.0 size=N/A time=00:00:44.90 bitrate=N/A dup=0 drop=251 speed=1.03x    [hls @ 0x7f156100a0c0] Opening 'http://127.0.0.1:41329/0/stream-g6UGzw5ng1637130102.ts' for writing
[hls @ 0x7f156100a0c0] Opening 'http://127.0.0.1:41329/0/stream.m3u8' for writing
frame= 1088 fps= 25 q=11.0 size=N/A time=00:00:45.39 bitrate=N/A dup=0 drop=254 speed=1.03x    frame= 1100 fps= 25 q=12.0 size=N/A time=00:00:45.90 bitrate=N/A dup=0 drop=257 speed=1.03x    frame= 1112 fps= 25 q=11.0 size=N/A time=00:00:46.41 bitrate=N/A dup=0 drop=260 speed=1.03x    frame= 1124 fps= 25 q=11.0 size=N/A time=00:00:46.94 bitrate=N/A dup=0 drop=263 speed=1.03x    frame= 1136 fps= 25 q=11.0 size=N/A time=00:00:47.43 bitrate=N/A dup=0 drop=265 speed=1.03x    frame= 1150 fps= 25 q=11.0 size=N/A time=00:00:47.94 bitrate=N/A dup=0 drop=268 speed=1.03x    [hls @ 0x7f156100a0c0] Opening 'http://127.0.0.1:41329/0/stream-g6UGzw5ng1637130104.ts' for writing
[hls @ 0x7f156100a0c0] Opening 'http://127.0.0.1:41329/0/stream.m3u8' for writing
frame= 1161 fps= 25 q=11.0 size=N/A time=00:00:48.48 bitrate=N/A dup=0 drop=271 speed=1.03x    frame= 1174 fps= 25 q=11.0 size=N/A time=00:00:48.96 bitrate=N/A dup=0 drop=274 speed=1.03x    frame= 1186 fps= 25 q=11.0 size=N/A time=00:00:49.47 bitrate=N/A dup=0 drop=277 speed=1.03x    frame= 1198 fps= 25 q=11.0 size=N/A time=00:00:49.99 bitrate=N/A dup=0 drop=280 speed=1.03x    frame= 1210 fps= 25 q=11.0 size=N/A time=00:00:50.50 bitrate=N/A dup=0 drop=283 speed=1.03x    frame= 1222 fps= 25 q=11.0 size=N/A time=00:00:51.01 bitrate=N/A dup=0 drop=286 speed=1.03x    [hls @ 0x7f156100a0c0] Opening 'http://127.0.0.1:41329/0/stream-g6UGzw5ng1637130108.ts' for writing
[hls @ 0x7f156100a0c0] Opening 'http://127.0.0.1:41329/0/stream.m3u8' for writing
frame= 1235 fps= 25 q=11.0 size=N/A time=00:00:51.52 bitrate=N/A dup=0 drop=288 speed=1.03x    frame= 1247 fps= 25 q=12.0 size=N/A time=00:00:52.05 bitrate=N/A dup=0 drop=292 speed=1.03x    frame= 1259 fps= 25 q=10.0 size=N/A time=00:00:52.56 bitrate=N/A dup=0 drop=294 speed=1.03x    frame= 1272 fps= 25 q=11.0 size=N/A time=00:00:53.07 bitrate=N/A dup=0 drop=297 speed=1.03x    frame= 1284 fps= 25 q=12.0 size=N/A time=00:00:53.58 bitrate=N/A dup=0 drop=300 speed=1.03x    frame= 1296 fps= 25 q=12.0 size=N/A time=00:00:54.10 bitrate=N/A dup=0 drop=302 speed=1.03x    [hls @ 0x7f156100a0c0] Opening 'http://127.0.0.1:41329/0/stream-g6UGzw5ng1637130111.ts' for writing
[hls @ 0x7f156100a0c0] Opening 'http://127.0.0.1:41329/0/stream.m3u8' for writing
frame= 1309 fps= 25 q=12.0 size=N/A time=00:00:54.61 bitrate=N/A dup=0 drop=306 speed=1.03x    frame= 1320 fps= 25 q=12.0 size=N/A time=00:00:55.09 bitrate=N/A dup=0 drop=308 speed=1.03x    frame= 1333 fps= 25 q=12.0 size=N/A time=00:00:55.60 bitrate=N/A dup=0 drop=311 speed=1.03x    frame= 1344 fps= 25 q=13.0 size=N/A time=00:00:56.12 bitrate=N/A dup=0 drop=315 speed=1.03x    frame= 1357 fps= 25 q=12.0 size=N/A time=00:00:56.60 bitrate=N/A dup=0 drop=317 speed=1.03x    [hls @ 0x7f156100a0c0] Opening 'http://127.0.0.1:41329/0/stream-g6UGzw5ng1637130114.ts' for writing
[hls @ 0x7f156100a0c0] Opening 'http://127.0.0.1:41329/0/stream.m3u8' for writing
frame= 1369 fps= 25 q=9.0 size=N/A time=00:00:57.14 bitrate=N/A dup=0 drop=320 speed=1.03x    frame= 1381 fps= 25 q=12.0 size=N/A time=00:00:57.62 bitrate=N/A dup=0 drop=323 speed=1.03x    frame= 1393 fps= 25 q=13.0 size=N/A time=00:00:58.14 bitrate=N/A dup=0 drop=326 speed=1.02x    frame= 1405 fps= 25 q=12.0 size=N/A time=00:00:58.62 bitrate=N/A dup=0 drop=328 speed=1.02x    frame= 1417 fps= 25 q=13.0 size=N/A time=00:00:59.16 bitrate=N/A dup=0 drop=332 speed=1.02x    frame= 1430 fps= 25 q=12.0 size=N/A time=00:00:59.69 bitrate=N/A dup=0 drop=334 speed=1.02x    [hls @ 0x7f156100a0c0] Opening 'http://127.0.0.1:41329/0/stream-g6UGzw5ng1637130117.ts' for writing
[hls @ 0x7f156100a0c0] Opening 'http://127.0.0.1:41329/0/stream.m3u8' for writing
frame= 1443 fps= 25 q=13.0 size=N/A time=00:01:00.18 bitrate=N/A dup=0 drop=337 speed=1.02x    frame= 1455 fps= 25 q=12.0 size=N/A time=00:01:00.69 bitrate=N/A dup=0 drop=340 speed=1.02x    frame= 1467 fps= 25 q=12.0 size=N/A time=00:01:01.20 bitrate=N/A dup=0 drop=343 speed=1.02x    frame= 1479 fps= 25 q=14.0 size=N/A time=00:01:01.71 bitrate=N/A dup=0 drop=346 speed=1.02x    frame= 1492 fps= 25 q=12.0 size=N/A time=00:01:02.22 bitrate=N/A dup=0 drop=348 speed=1.02x    frame= 1504 fps= 25 q=12.0 size=N/A time=00:01:02.71 bitrate=N/A dup=0 drop=351 speed=1.02x    [hls @ 0x7f156100a0c0] Opening 'http://127.0.0.1:41329/0/stream-g6UGzw5ng1637130120.ts' for writing
[hls @ 0x7f156100a0c0] Opening 'http://127.0.0.1:41329/0/stream.m3u8' for writing
frame= 1516 fps= 25 q=12.0 size=N/A time=00:01:03.24 bitrate=N/A dup=0 drop=354 speed=1.02x    frame= 1528 fps= 25 q=12.0 size=N/A time=00:01:03.75 bitrate=N/A dup=0 drop=357 speed=1.02x    frame= 1541 fps= 25 q=12.0 size=N/A time=00:01:04.27 bitrate=N/A dup=0 drop=360 speed=1.02x    frame= 1552 fps= 24 q=12.0 size=N/A time=00:01:04.80 bitrate=N/A dup=0 drop=363 speed=1.02x    frame= 1565 fps= 24 q=12.0 size=N/A time=00:01:05.29 bitrate=N/A dup=0 drop=366 speed=1.02x    frame= 1577 fps= 24 q=12.0 size=N/A time=00:01:05.82 bitrate=N/A dup=0 drop=369 speed=1.02x    [hls @ 0x7f156100a0c0] Opening 'http://127.0.0.1:41329/0/stream-g6UGzw5ng1637130123.ts' for writing
[hls @ 0x7f156100a0c0] Opening 'http://127.0.0.1:41329/0/stream.m3u8' for writing
frame= 1589 fps= 24 q=13.0 size=N/A time=00:01:06.31 bitrate=N/A dup=0 drop=371 speed=1.02x    frame= 1601 fps= 24 q=12.0 size=N/A time=00:01:06.84 bitrate=N/A dup=0 drop=374 speed=1.02x    frame= 1614 fps= 24 q=12.0 size=N/A time=00:01:07.35 bitrate=N/A dup=0 drop=377 speed=1.02x    frame= 1627 fps= 24 q=12.0 size=N/A time=00:01:07.84 bitrate=N/A dup=0 drop=380 speed=1.02x    frame= 1639 fps= 24 q=12.0 size=N/A time=00:01:08.35 bitrate=N/A dup=0 drop=383 speed=1.02x    frame= 1651 fps= 24 q=12.0 size=N/A time=00:01:08.84 bitrate=N/A dup=0 drop=386 speed=1.02x    [hls @ 0x7f156100a0c0] Opening 'http://127.0.0.1:41329/0/stream-g6UGzw5ng1637130126.ts' for writing
[hls @ 0x7f156100a0c0] Opening 'http://127.0.0.1:41329/0/stream.m3u8' for writing
frame= 1663 fps= 24 q=13.0 size=N/A time=00:01:09.37 bitrate=N/A dup=0 drop=389 speed=1.02x    frame= 1674 fps= 24 q=13.0 size=N/A time=00:01:09.86 bitrate=N/A dup=0 drop=392 speed=1.02x    frame= 1687 fps= 24 q=12.0 size=N/A time=00:01:10.40 bitrate=N/A dup=0 drop=394 speed=1.02x    frame= 1700 fps= 24 q=12.0 size=N/A time=00:01:10.91 bitrate=N/A dup=0 drop=397 speed=1.02x    frame= 1711 fps= 24 q=12.0 size=N/A time=00:01:11.42 bitrate=N/A dup=0 drop=400 speed=1.02x    frame= 1724 fps= 24 q=12.0 size=N/A time=00:01:11.93 bitrate=N/A dup=0 drop=403 speed=1.02x    [hls @ 0x7f156100a0c0] Opening 'http://127.0.0.1:41329/0/stream-g6UGzw5ng1637130129.ts' for writing
[hls @ 0x7f156100a0c0] Opening 'http://127.0.0.1:41329/0/stream.m3u8' for writing
frame= 1736 fps= 24 q=12.0 size=N/A time=00:01:12.44 bitrate=N/A dup=0 drop=406 speed=1.02x    frame= 1749 fps= 24 q=12.0 size=N/A time=00:01:12.93 bitrate=N/A dup=0 drop=409 speed=1.02x    frame= 1761 fps= 24 q=12.0 size=N/A time=00:01:13.44 bitrate=N/A dup=0 drop=411 speed=1.02x    frame= 1773 fps= 24 q=11.0 size=N/A time=00:01:13.95 bitrate=N/A dup=0 drop=414 speed=1.02x    frame= 1785 fps= 24 q=12.0 size=N/A time=00:01:14.46 bitrate=N/A dup=0 drop=417 speed=1.02x    frame= 1797 fps= 24 q=12.0 size=N/A time=00:01:14.95 bitrate=N/A dup=0 drop=420 speed=1.02x    [hls @ 0x7f156100a0c0] Opening 'http://127.0.0.1:41329/0/stream-g6UGzw5ng1637130132.ts' for writing
[hls @ 0x7f156100a0c0] Opening 'http://127.0.0.1:41329/0/stream.m3u8' for writing
frame= 1810 fps= 24 q=12.0 size=N/A time=00:01:15.46 bitrate=N/A dup=0 drop=423 speed=1.02x    frame= 1821 fps= 24 q=12.0 size=N/A time=00:01:15.97 bitrate=N/A dup=0 drop=426 speed=1.02x    frame= 1833 fps= 24 q=12.0 size=N/A time=00:01:16.48 bitrate=N/A dup=0 drop=428 speed=1.02x    frame= 1845 fps= 24 q=12.0 size=N/A time=00:01:16.99 bitrate=N/A dup=0 drop=432 speed=1.02x    frame= 1858 fps= 24 q=12.0 size=N/A time=00:01:17.48 bitrate=N/A dup=0 drop=434 speed=1.02x    frame= 1870 fps= 24 q=13.0 size=N/A time=00:01:17.99 bitrate=N/A dup=0 drop=437 speed=1.02x    [hls @ 0x7f156100a0c0] Opening 'http://127.0.0.1:41329/0/stream-g6UGzw5ng1637130135.ts' for writing
[hls @ 0x7f156100a0c0] Opening 'http://127.0.0.1:41329/0/stream.m3u8' for writing
[hls @ 0x7f156100a0c0] Opening 'http://127.0.0.1:41329/0/stream-g6UGzw5ng1637130138.ts' for writing
[hls @ 0x7f156100a0c0] Opening 'http://127.0.0.1:41329/0/stream.m3u8' for writing
frame= 1878 fps= 24 q=13.0 Lsize=N/A time=00:01:18.25 bitrate=N/A dup=0 drop=441 speed=1.02x    
video:11518kB audio:1252kB subtitle:0kB other streams:0kB global headers:0kB muxing overhead: unknown
[libx264 @ 0x7f1560cc3040] frame I:27    Avg QP: 5.58  size: 25198
[libx264 @ 0x7f1560cc3040] frame P:1851  Avg QP:10.32  size:  6004
[libx264 @ 0x7f1560cc3040] mb I  I16..4: 43.2% 24.0% 32.8%
[libx264 @ 0x7f1560cc3040] mb P  I16..4:  3.0%  1.5%  1.0%  P16..4: 21.7%  7.2%  5.4%  0.0%  0.0%    skip:60.2%
[libx264 @ 0x7f1560cc3040] 8x8 transform intra:26.4% inter:13.5%
[libx264 @ 0x7f1560cc3040] coded y,uvDC,uvAC intra: 50.6% 49.1% 25.1% inter: 17.4% 8.5% 0.5%
[libx264 @ 0x7f1560cc3040] i16 v,h,dc,p: 61% 20% 13%  6%
[libx264 @ 0x7f1560cc3040] i8 v,h,dc,ddl,ddr,vr,hd,vl,hu: 34% 22% 21%  3%  3%  5%  3%  4%  4%
[libx264 @ 0x7f1560cc3040] i4 v,h,dc,ddl,ddr,vr,hd,vl,hu: 28% 17% 15%  5%  8% 10%  6%  6%  4%
[libx264 @ 0x7f1560cc3040] i8c dc,h,v,p: 60% 17% 20%  4%
[libx264 @ 0x7f1560cc3040] Weighted P-Frames: Y:0.1% UV:0.0%
[libx264 @ 0x7f1560cc3040] kb/s:1205.74
